<mxfile host="65bd71144e">
    <diagram id="TOK_7PPxlZ4M5wLWmGoa" name="CNN特征提取器总体架构">
        <mxGraphModel dx="1173" dy="766" grid="1" gridSize="10" guides="1" tooltips="1" connect="1" arrows="1" fold="1" page="1" pageScale="1" pageWidth="850" pageHeight="1100" math="0" shadow="0">
            <root>
                <mxCell id="0"/>
                <mxCell id="1" parent="0"/>
                <mxCell id="24" value="&lt;font style=&quot;font-size: 22px;&quot;&gt;输入&lt;/font&gt;" style="rounded=0;whiteSpace=wrap;html=1;fillColor=#f5f5f5;strokeColor=#666666;container=0;fontColor=#333333;" vertex="1" parent="1">
                    <mxGeometry x="372.02000000000004" y="820" width="75.95" height="30" as="geometry"/>
                </mxCell>
                <mxCell id="25" value="&lt;span style=&quot;font-size: 22px;&quot;&gt;预处理&lt;/span&gt;" style="rounded=0;whiteSpace=wrap;html=1;fillColor=#f5f5f5;strokeColor=#666666;container=0;fontColor=#333333;" vertex="1" parent="1">
                    <mxGeometry x="372.02000000000004" y="750" width="75.95" height="30" as="geometry"/>
                </mxCell>
                <mxCell id="26" value="" style="endArrow=classic;html=1;fontSize=22;strokeWidth=2;" edge="1" parent="1">
                    <mxGeometry width="50" height="50" relative="1" as="geometry">
                        <mxPoint x="409.99" y="820" as="sourcePoint"/>
                        <mxPoint x="409.49" y="780" as="targetPoint"/>
                    </mxGeometry>
                </mxCell>
                <mxCell id="27" value="" style="endArrow=classic;html=1;strokeWidth=2;fontSize=22;" edge="1" parent="1">
                    <mxGeometry width="50" height="50" relative="1" as="geometry">
                        <mxPoint x="409.5" y="750" as="sourcePoint"/>
                        <mxPoint x="409.5" y="700" as="targetPoint"/>
                    </mxGeometry>
                </mxCell>
                <mxCell id="52" value="" style="group" vertex="1" connectable="0" parent="1">
                    <mxGeometry x="150" y="570" width="470" height="130" as="geometry"/>
                </mxCell>
                <mxCell id="23" value="" style="group" vertex="1" connectable="0" parent="52">
                    <mxGeometry x="50" width="420" height="129.99999999999994" as="geometry"/>
                </mxCell>
                <mxCell id="2" value="" style="rounded=0;whiteSpace=wrap;html=1;fillColor=#dae8fc;strokeColor=#6c8ebf;container=0;" vertex="1" parent="23">
                    <mxGeometry x="178.10126582278482" y="116.31578947368416" width="63.79746835443038" height="13.68421052631579" as="geometry"/>
                </mxCell>
                <mxCell id="3" value="" style="rounded=0;whiteSpace=wrap;html=1;fillColor=#1ba1e2;strokeColor=#006EAF;fontColor=#ffffff;container=0;" vertex="1" parent="23">
                    <mxGeometry y="61.57894736842104" width="74.43037974683546" height="13.68421052631579" as="geometry"/>
                </mxCell>
                <mxCell id="4" value="" style="rounded=0;whiteSpace=wrap;html=1;container=0;" vertex="1" parent="23">
                    <mxGeometry x="111.64556962025313" y="78.68421052631578" width="74.43037974683546" height="13.68421052631579" as="geometry"/>
                </mxCell>
                <mxCell id="5" value="" style="rounded=0;whiteSpace=wrap;html=1;container=0;" vertex="1" parent="23">
                    <mxGeometry x="233.92405063291142" y="78.68421052631578" width="74.43037974683546" height="13.68421052631579" as="geometry"/>
                </mxCell>
                <mxCell id="6" value="" style="rounded=0;whiteSpace=wrap;html=1;container=0;" vertex="1" parent="23">
                    <mxGeometry x="345.56962025316454" y="41.05263157894737" width="74.43037974683546" height="13.68421052631579" as="geometry"/>
                </mxCell>
                <mxCell id="7" value="" style="rounded=0;whiteSpace=wrap;html=1;fillColor=#1ba1e2;strokeColor=#006EAF;fontColor=#ffffff;container=0;" vertex="1" parent="23">
                    <mxGeometry x="345.56962025316454" y="78.68421052631578" width="74.43037974683546" height="13.68421052631579" as="geometry"/>
                </mxCell>
                <mxCell id="8" value="" style="rounded=0;whiteSpace=wrap;html=1;fillColor=#1ba1e2;strokeColor=#006EAF;fontColor=#ffffff;container=0;" vertex="1" parent="23">
                    <mxGeometry x="106.32911392405066" y="41.05263157894737" width="85.06329113924049" height="13.68421052631579" as="geometry"/>
                </mxCell>
                <mxCell id="9" value="" style="rounded=0;whiteSpace=wrap;html=1;fillColor=#1ba1e2;strokeColor=#006EAF;fontColor=#ffffff;container=0;" vertex="1" parent="23">
                    <mxGeometry x="228.60759493670884" y="41.05263157894737" width="85.06329113924049" height="13.68421052631579" as="geometry"/>
                </mxCell>
                <mxCell id="10" value="" style="rounded=0;whiteSpace=wrap;html=1;fillColor=#dae8fc;strokeColor=#6c8ebf;container=0;" vertex="1" parent="23">
                    <mxGeometry x="167.46835443037975" width="85.06329113924049" height="13.68421052631579" as="geometry"/>
                </mxCell>
                <mxCell id="11" value="" style="endArrow=classic;html=1;fontSize=23;entryX=0.571;entryY=1;entryDx=0;entryDy=0;entryPerimeter=0;strokeWidth=2;" edge="1" parent="23" target="4">
                    <mxGeometry width="50" height="50" relative="1" as="geometry">
                        <mxPoint x="210" y="116.31578947368416" as="sourcePoint"/>
                        <mxPoint x="236.58227848101262" y="99.21052631578948" as="targetPoint"/>
                    </mxGeometry>
                </mxCell>
                <mxCell id="12" value="" style="endArrow=classic;html=1;fontSize=23;entryX=0.5;entryY=1;entryDx=0;entryDy=0;strokeWidth=2;" edge="1" parent="23" target="5">
                    <mxGeometry width="50" height="50" relative="1" as="geometry">
                        <mxPoint x="209.46835443037975" y="116.31578947368416" as="sourcePoint"/>
                        <mxPoint x="236.05063291139243" y="99.21052631578948" as="targetPoint"/>
                    </mxGeometry>
                </mxCell>
                <mxCell id="13" value="" style="endArrow=classic;html=1;strokeWidth=2;fontSize=23;entryX=0.5;entryY=1;entryDx=0;entryDy=0;" edge="1" parent="23" target="7">
                    <mxGeometry width="50" height="50" relative="1" as="geometry">
                        <mxPoint x="241.89873417721515" y="123.15789473684208" as="sourcePoint"/>
                        <mxPoint x="268.4810126582278" y="106.0526315789474" as="targetPoint"/>
                        <Array as="points">
                            <mxPoint x="382.7848101265823" y="123.15789473684208"/>
                        </Array>
                    </mxGeometry>
                </mxCell>
                <mxCell id="14" value="" style="endArrow=classic;html=1;strokeWidth=2;fontSize=23;entryX=0.5;entryY=1;entryDx=0;entryDy=0;" edge="1" parent="23" target="6">
                    <mxGeometry width="50" height="50" relative="1" as="geometry">
                        <mxPoint x="382.7848101265823" y="78.68421052631578" as="sourcePoint"/>
                        <mxPoint x="409.3670886075949" y="61.57894736842104" as="targetPoint"/>
                    </mxGeometry>
                </mxCell>
                <mxCell id="15" value="" style="endArrow=classic;html=1;strokeWidth=2;fontSize=23;entryX=0.5;entryY=1;entryDx=0;entryDy=0;" edge="1" parent="23">
                    <mxGeometry width="50" height="50" relative="1" as="geometry">
                        <mxPoint x="270.873417721519" y="78.68421052631578" as="sourcePoint"/>
                        <mxPoint x="270.873417721519" y="54.73684210526315" as="targetPoint"/>
                    </mxGeometry>
                </mxCell>
                <mxCell id="16" value="" style="endArrow=classic;html=1;strokeWidth=2;fontSize=23;entryX=0.5;entryY=1;entryDx=0;entryDy=0;" edge="1" parent="23">
                    <mxGeometry width="50" height="50" relative="1" as="geometry">
                        <mxPoint x="148.59493670886076" y="78.68421052631578" as="sourcePoint"/>
                        <mxPoint x="148.59493670886076" y="54.73684210526315" as="targetPoint"/>
                    </mxGeometry>
                </mxCell>
                <mxCell id="17" value="" style="endArrow=classic;html=1;strokeWidth=2;fontSize=23;exitX=0;exitY=0.5;exitDx=0;exitDy=0;entryX=0.5;entryY=1;entryDx=0;entryDy=0;" edge="1" parent="23" source="2" target="3">
                    <mxGeometry width="50" height="50" relative="1" as="geometry">
                        <mxPoint x="10.632911392405063" y="95.78947368421052" as="sourcePoint"/>
                        <mxPoint x="37.21518987341773" y="78.68421052631578" as="targetPoint"/>
                        <Array as="points">
                            <mxPoint x="37.21518987341773" y="123.15789473684208"/>
                        </Array>
                    </mxGeometry>
                </mxCell>
                <mxCell id="18" value="" style="endArrow=classic;html=1;strokeWidth=2;fontSize=23;entryX=0.5;entryY=1;entryDx=0;entryDy=0;" edge="1" parent="23" target="10">
                    <mxGeometry width="50" height="50" relative="1" as="geometry">
                        <mxPoint x="148.8607594936709" y="41.05263157894737" as="sourcePoint"/>
                        <mxPoint x="175.44303797468353" y="23.94736842105263" as="targetPoint"/>
                    </mxGeometry>
                </mxCell>
                <mxCell id="19" value="" style="endArrow=classic;html=1;strokeWidth=2;fontSize=23;entryX=0.5;entryY=1;entryDx=0;entryDy=0;" edge="1" parent="23" target="10">
                    <mxGeometry width="50" height="50" relative="1" as="geometry">
                        <mxPoint x="271.1392405063291" y="41.05263157894737" as="sourcePoint"/>
                        <mxPoint x="297.7215189873418" y="23.94736842105263" as="targetPoint"/>
                    </mxGeometry>
                </mxCell>
                <mxCell id="20" value="" style="endArrow=classic;html=1;strokeWidth=2;fontSize=23;entryX=0;entryY=0.5;entryDx=0;entryDy=0;" edge="1" parent="23" target="10">
                    <mxGeometry width="50" height="50" relative="1" as="geometry">
                        <mxPoint x="37.21518987341773" y="61.57894736842104" as="sourcePoint"/>
                        <mxPoint x="63.79746835443038" y="44.4736842105263" as="targetPoint"/>
                        <Array as="points">
                            <mxPoint x="37.21518987341773" y="6.84210526315789"/>
                        </Array>
                    </mxGeometry>
                </mxCell>
                <mxCell id="21" value="" style="endArrow=classic;html=1;strokeWidth=2;fontSize=23;entryX=1;entryY=0.5;entryDx=0;entryDy=0;" edge="1" parent="23" target="10">
                    <mxGeometry width="50" height="50" relative="1" as="geometry">
                        <mxPoint x="382.7848101265823" y="41.05263157894737" as="sourcePoint"/>
                        <mxPoint x="409.3670886075949" y="23.94736842105263" as="targetPoint"/>
                        <Array as="points">
                            <mxPoint x="382.7848101265823" y="6.84210526315789"/>
                        </Array>
                    </mxGeometry>
                </mxCell>
                <mxCell id="28" value="2 x" style="text;html=1;align=center;verticalAlign=middle;resizable=0;points=[];autosize=1;strokeColor=none;fillColor=none;fontSize=22;" vertex="1" parent="52">
                    <mxGeometry y="50" width="50" height="40" as="geometry"/>
                </mxCell>
                <mxCell id="53" value="" style="group" vertex="1" connectable="0" parent="1">
                    <mxGeometry x="149" y="400" width="470" height="130" as="geometry"/>
                </mxCell>
                <mxCell id="54" value="" style="group" vertex="1" connectable="0" parent="53">
                    <mxGeometry x="50" width="420" height="129.99999999999994" as="geometry"/>
                </mxCell>
                <mxCell id="55" value="" style="rounded=0;whiteSpace=wrap;html=1;fillColor=#dae8fc;strokeColor=#6c8ebf;container=0;" vertex="1" parent="54">
                    <mxGeometry x="178.10126582278482" y="116.31578947368416" width="63.79746835443038" height="13.68421052631579" as="geometry"/>
                </mxCell>
                <mxCell id="56" value="" style="rounded=0;whiteSpace=wrap;html=1;fillColor=#1ba1e2;strokeColor=#006EAF;fontColor=#ffffff;container=0;" vertex="1" parent="54">
                    <mxGeometry y="61.57894736842104" width="74.43037974683546" height="13.68421052631579" as="geometry"/>
                </mxCell>
                <mxCell id="57" value="" style="rounded=0;whiteSpace=wrap;html=1;container=0;" vertex="1" parent="54">
                    <mxGeometry x="111.64556962025313" y="78.68421052631578" width="74.43037974683546" height="13.68421052631579" as="geometry"/>
                </mxCell>
                <mxCell id="58" value="" style="rounded=0;whiteSpace=wrap;html=1;container=0;" vertex="1" parent="54">
                    <mxGeometry x="233.92405063291142" y="78.68421052631578" width="74.43037974683546" height="13.68421052631579" as="geometry"/>
                </mxCell>
                <mxCell id="59" value="" style="rounded=0;whiteSpace=wrap;html=1;container=0;" vertex="1" parent="54">
                    <mxGeometry x="345.56962025316454" y="41.05263157894737" width="74.43037974683546" height="13.68421052631579" as="geometry"/>
                </mxCell>
                <mxCell id="60" value="" style="rounded=0;whiteSpace=wrap;html=1;fillColor=#1ba1e2;strokeColor=#006EAF;fontColor=#ffffff;container=0;" vertex="1" parent="54">
                    <mxGeometry x="345.56962025316454" y="78.68421052631578" width="74.43037974683546" height="13.68421052631579" as="geometry"/>
                </mxCell>
                <mxCell id="61" value="" style="rounded=0;whiteSpace=wrap;html=1;fillColor=#1ba1e2;strokeColor=#006EAF;fontColor=#ffffff;container=0;" vertex="1" parent="54">
                    <mxGeometry x="106.32911392405066" y="41.05263157894737" width="85.06329113924049" height="13.68421052631579" as="geometry"/>
                </mxCell>
                <mxCell id="62" value="" style="rounded=0;whiteSpace=wrap;html=1;fillColor=#1ba1e2;strokeColor=#006EAF;fontColor=#ffffff;container=0;" vertex="1" parent="54">
                    <mxGeometry x="228.60759493670884" y="41.05263157894737" width="85.06329113924049" height="13.68421052631579" as="geometry"/>
                </mxCell>
                <mxCell id="63" value="" style="rounded=0;whiteSpace=wrap;html=1;fillColor=#dae8fc;strokeColor=#6c8ebf;container=0;" vertex="1" parent="54">
                    <mxGeometry x="167.46835443037975" width="85.06329113924049" height="13.68421052631579" as="geometry"/>
                </mxCell>
                <mxCell id="64" value="" style="endArrow=classic;html=1;fontSize=23;entryX=0.571;entryY=1;entryDx=0;entryDy=0;entryPerimeter=0;strokeWidth=2;" edge="1" parent="54" target="57">
                    <mxGeometry width="50" height="50" relative="1" as="geometry">
                        <mxPoint x="210" y="116.31578947368416" as="sourcePoint"/>
                        <mxPoint x="236.58227848101262" y="99.21052631578948" as="targetPoint"/>
                    </mxGeometry>
                </mxCell>
                <mxCell id="65" value="" style="endArrow=classic;html=1;fontSize=23;entryX=0.5;entryY=1;entryDx=0;entryDy=0;strokeWidth=2;" edge="1" parent="54" target="58">
                    <mxGeometry width="50" height="50" relative="1" as="geometry">
                        <mxPoint x="209.46835443037975" y="116.31578947368416" as="sourcePoint"/>
                        <mxPoint x="236.05063291139243" y="99.21052631578948" as="targetPoint"/>
                    </mxGeometry>
                </mxCell>
                <mxCell id="66" value="" style="endArrow=classic;html=1;strokeWidth=2;fontSize=23;entryX=0.5;entryY=1;entryDx=0;entryDy=0;" edge="1" parent="54" target="60">
                    <mxGeometry width="50" height="50" relative="1" as="geometry">
                        <mxPoint x="241.89873417721515" y="123.15789473684208" as="sourcePoint"/>
                        <mxPoint x="268.4810126582278" y="106.0526315789474" as="targetPoint"/>
                        <Array as="points">
                            <mxPoint x="382.7848101265823" y="123.15789473684208"/>
                        </Array>
                    </mxGeometry>
                </mxCell>
                <mxCell id="67" value="" style="endArrow=classic;html=1;strokeWidth=2;fontSize=23;entryX=0.5;entryY=1;entryDx=0;entryDy=0;" edge="1" parent="54" target="59">
                    <mxGeometry width="50" height="50" relative="1" as="geometry">
                        <mxPoint x="382.7848101265823" y="78.68421052631578" as="sourcePoint"/>
                        <mxPoint x="409.3670886075949" y="61.57894736842104" as="targetPoint"/>
                    </mxGeometry>
                </mxCell>
                <mxCell id="68" value="" style="endArrow=classic;html=1;strokeWidth=2;fontSize=23;entryX=0.5;entryY=1;entryDx=0;entryDy=0;" edge="1" parent="54">
                    <mxGeometry width="50" height="50" relative="1" as="geometry">
                        <mxPoint x="270.873417721519" y="78.68421052631578" as="sourcePoint"/>
                        <mxPoint x="270.873417721519" y="54.73684210526315" as="targetPoint"/>
                    </mxGeometry>
                </mxCell>
                <mxCell id="69" value="" style="endArrow=classic;html=1;strokeWidth=2;fontSize=23;entryX=0.5;entryY=1;entryDx=0;entryDy=0;" edge="1" parent="54">
                    <mxGeometry width="50" height="50" relative="1" as="geometry">
                        <mxPoint x="148.59493670886076" y="78.68421052631578" as="sourcePoint"/>
                        <mxPoint x="148.59493670886076" y="54.73684210526315" as="targetPoint"/>
                    </mxGeometry>
                </mxCell>
                <mxCell id="70" value="" style="endArrow=classic;html=1;strokeWidth=2;fontSize=23;exitX=0;exitY=0.5;exitDx=0;exitDy=0;entryX=0.5;entryY=1;entryDx=0;entryDy=0;" edge="1" parent="54" source="55" target="56">
                    <mxGeometry width="50" height="50" relative="1" as="geometry">
                        <mxPoint x="10.632911392405063" y="95.78947368421052" as="sourcePoint"/>
                        <mxPoint x="37.21518987341773" y="78.68421052631578" as="targetPoint"/>
                        <Array as="points">
                            <mxPoint x="37.21518987341773" y="123.15789473684208"/>
                        </Array>
                    </mxGeometry>
                </mxCell>
                <mxCell id="71" value="" style="endArrow=classic;html=1;strokeWidth=2;fontSize=23;entryX=0.5;entryY=1;entryDx=0;entryDy=0;" edge="1" parent="54" target="63">
                    <mxGeometry width="50" height="50" relative="1" as="geometry">
                        <mxPoint x="148.8607594936709" y="41.05263157894737" as="sourcePoint"/>
                        <mxPoint x="175.44303797468353" y="23.94736842105263" as="targetPoint"/>
                    </mxGeometry>
                </mxCell>
                <mxCell id="72" value="" style="endArrow=classic;html=1;strokeWidth=2;fontSize=23;entryX=0.5;entryY=1;entryDx=0;entryDy=0;" edge="1" parent="54" target="63">
                    <mxGeometry width="50" height="50" relative="1" as="geometry">
                        <mxPoint x="271.1392405063291" y="41.05263157894737" as="sourcePoint"/>
                        <mxPoint x="297.7215189873418" y="23.94736842105263" as="targetPoint"/>
                    </mxGeometry>
                </mxCell>
                <mxCell id="73" value="" style="endArrow=classic;html=1;strokeWidth=2;fontSize=23;entryX=0;entryY=0.5;entryDx=0;entryDy=0;" edge="1" parent="54" target="63">
                    <mxGeometry width="50" height="50" relative="1" as="geometry">
                        <mxPoint x="37.21518987341773" y="61.57894736842104" as="sourcePoint"/>
                        <mxPoint x="63.79746835443038" y="44.4736842105263" as="targetPoint"/>
                        <Array as="points">
                            <mxPoint x="37.21518987341773" y="6.84210526315789"/>
                        </Array>
                    </mxGeometry>
                </mxCell>
                <mxCell id="74" value="" style="endArrow=classic;html=1;strokeWidth=2;fontSize=23;entryX=1;entryY=0.5;entryDx=0;entryDy=0;" edge="1" parent="54" target="63">
                    <mxGeometry width="50" height="50" relative="1" as="geometry">
                        <mxPoint x="382.7848101265823" y="41.05263157894737" as="sourcePoint"/>
                        <mxPoint x="409.3670886075949" y="23.94736842105263" as="targetPoint"/>
                        <Array as="points">
                            <mxPoint x="382.7848101265823" y="6.84210526315789"/>
                        </Array>
                    </mxGeometry>
                </mxCell>
                <mxCell id="75" value="5 x" style="text;html=1;align=center;verticalAlign=middle;resizable=0;points=[];autosize=1;strokeColor=none;fillColor=none;fontSize=22;" vertex="1" parent="53">
                    <mxGeometry y="50" width="50" height="40" as="geometry"/>
                </mxCell>
                <mxCell id="77" value="" style="endArrow=classic;html=1;strokeWidth=2;fontSize=22;" edge="1" parent="1">
                    <mxGeometry width="50" height="50" relative="1" as="geometry">
                        <mxPoint x="409" y="570" as="sourcePoint"/>
                        <mxPoint x="409.49" y="530" as="targetPoint"/>
                    </mxGeometry>
                </mxCell>
                <mxCell id="82" value="" style="endArrow=classic;html=1;strokeColor=#000000;strokeWidth=2;fontSize=22;entryX=0.5;entryY=1;entryDx=0;entryDy=0;" edge="1" parent="1">
                    <mxGeometry width="50" height="50" relative="1" as="geometry">
                        <mxPoint x="410" y="550" as="sourcePoint"/>
                        <mxPoint x="707.2149999999999" y="500" as="targetPoint"/>
                        <Array as="points">
                            <mxPoint x="707" y="550"/>
                        </Array>
                    </mxGeometry>
                </mxCell>
                <mxCell id="85" value="" style="group" vertex="1" connectable="0" parent="1">
                    <mxGeometry x="149" y="229" width="470" height="130" as="geometry"/>
                </mxCell>
                <mxCell id="86" value="" style="group" vertex="1" connectable="0" parent="85">
                    <mxGeometry x="50" width="420" height="129.99999999999994" as="geometry"/>
                </mxCell>
                <mxCell id="87" value="" style="rounded=0;whiteSpace=wrap;html=1;fillColor=#dae8fc;strokeColor=#6c8ebf;container=0;" vertex="1" parent="86">
                    <mxGeometry x="178.10126582278482" y="116.31578947368416" width="63.79746835443038" height="13.68421052631579" as="geometry"/>
                </mxCell>
                <mxCell id="88" value="" style="rounded=0;whiteSpace=wrap;html=1;fillColor=#1ba1e2;strokeColor=#006EAF;fontColor=#ffffff;container=0;" vertex="1" parent="86">
                    <mxGeometry y="61.57894736842104" width="74.43037974683546" height="13.68421052631579" as="geometry"/>
                </mxCell>
                <mxCell id="89" value="" style="rounded=0;whiteSpace=wrap;html=1;container=0;" vertex="1" parent="86">
                    <mxGeometry x="111.64556962025313" y="78.68421052631578" width="74.43037974683546" height="13.68421052631579" as="geometry"/>
                </mxCell>
                <mxCell id="90" value="" style="rounded=0;whiteSpace=wrap;html=1;container=0;" vertex="1" parent="86">
                    <mxGeometry x="233.92405063291142" y="78.68421052631578" width="74.43037974683546" height="13.68421052631579" as="geometry"/>
                </mxCell>
                <mxCell id="91" value="" style="rounded=0;whiteSpace=wrap;html=1;container=0;" vertex="1" parent="86">
                    <mxGeometry x="345.56962025316454" y="41.05263157894737" width="74.43037974683546" height="13.68421052631579" as="geometry"/>
                </mxCell>
                <mxCell id="92" value="" style="rounded=0;whiteSpace=wrap;html=1;fillColor=#1ba1e2;strokeColor=#006EAF;fontColor=#ffffff;container=0;" vertex="1" parent="86">
                    <mxGeometry x="345.56962025316454" y="78.68421052631578" width="74.43037974683546" height="13.68421052631579" as="geometry"/>
                </mxCell>
                <mxCell id="93" value="" style="rounded=0;whiteSpace=wrap;html=1;fillColor=#1ba1e2;strokeColor=#006EAF;fontColor=#ffffff;container=0;" vertex="1" parent="86">
                    <mxGeometry x="106.32911392405066" y="41.05263157894737" width="85.06329113924049" height="13.68421052631579" as="geometry"/>
                </mxCell>
                <mxCell id="94" value="" style="rounded=0;whiteSpace=wrap;html=1;fillColor=#1ba1e2;strokeColor=#006EAF;fontColor=#ffffff;container=0;" vertex="1" parent="86">
                    <mxGeometry x="228.60759493670884" y="41.05263157894737" width="85.06329113924049" height="13.68421052631579" as="geometry"/>
                </mxCell>
                <mxCell id="95" value="" style="rounded=0;whiteSpace=wrap;html=1;fillColor=#dae8fc;strokeColor=#6c8ebf;container=0;" vertex="1" parent="86">
                    <mxGeometry x="167.46835443037975" width="85.06329113924049" height="13.68421052631579" as="geometry"/>
                </mxCell>
                <mxCell id="96" value="" style="endArrow=classic;html=1;fontSize=23;entryX=0.571;entryY=1;entryDx=0;entryDy=0;entryPerimeter=0;strokeWidth=2;" edge="1" parent="86" target="89">
                    <mxGeometry width="50" height="50" relative="1" as="geometry">
                        <mxPoint x="210" y="116.31578947368416" as="sourcePoint"/>
                        <mxPoint x="236.58227848101262" y="99.21052631578948" as="targetPoint"/>
                    </mxGeometry>
                </mxCell>
                <mxCell id="97" value="" style="endArrow=classic;html=1;fontSize=23;entryX=0.5;entryY=1;entryDx=0;entryDy=0;strokeWidth=2;" edge="1" parent="86" target="90">
                    <mxGeometry width="50" height="50" relative="1" as="geometry">
                        <mxPoint x="209.46835443037975" y="116.31578947368416" as="sourcePoint"/>
                        <mxPoint x="236.05063291139243" y="99.21052631578948" as="targetPoint"/>
                    </mxGeometry>
                </mxCell>
                <mxCell id="98" value="" style="endArrow=classic;html=1;strokeWidth=2;fontSize=23;entryX=0.5;entryY=1;entryDx=0;entryDy=0;" edge="1" parent="86" target="92">
                    <mxGeometry width="50" height="50" relative="1" as="geometry">
                        <mxPoint x="241.89873417721515" y="123.15789473684208" as="sourcePoint"/>
                        <mxPoint x="268.4810126582278" y="106.0526315789474" as="targetPoint"/>
                        <Array as="points">
                            <mxPoint x="382.7848101265823" y="123.15789473684208"/>
                        </Array>
                    </mxGeometry>
                </mxCell>
                <mxCell id="99" value="" style="endArrow=classic;html=1;strokeWidth=2;fontSize=23;entryX=0.5;entryY=1;entryDx=0;entryDy=0;" edge="1" parent="86" target="91">
                    <mxGeometry width="50" height="50" relative="1" as="geometry">
                        <mxPoint x="382.7848101265823" y="78.68421052631578" as="sourcePoint"/>
                        <mxPoint x="409.3670886075949" y="61.57894736842104" as="targetPoint"/>
                    </mxGeometry>
                </mxCell>
                <mxCell id="100" value="" style="endArrow=classic;html=1;strokeWidth=2;fontSize=23;entryX=0.5;entryY=1;entryDx=0;entryDy=0;" edge="1" parent="86">
                    <mxGeometry width="50" height="50" relative="1" as="geometry">
                        <mxPoint x="270.873417721519" y="78.68421052631578" as="sourcePoint"/>
                        <mxPoint x="270.873417721519" y="54.73684210526315" as="targetPoint"/>
                    </mxGeometry>
                </mxCell>
                <mxCell id="101" value="" style="endArrow=classic;html=1;strokeWidth=2;fontSize=23;entryX=0.5;entryY=1;entryDx=0;entryDy=0;" edge="1" parent="86">
                    <mxGeometry width="50" height="50" relative="1" as="geometry">
                        <mxPoint x="148.59493670886076" y="78.68421052631578" as="sourcePoint"/>
                        <mxPoint x="148.59493670886076" y="54.73684210526315" as="targetPoint"/>
                    </mxGeometry>
                </mxCell>
                <mxCell id="102" value="" style="endArrow=classic;html=1;strokeWidth=2;fontSize=23;exitX=0;exitY=0.5;exitDx=0;exitDy=0;entryX=0.5;entryY=1;entryDx=0;entryDy=0;" edge="1" parent="86" source="87" target="88">
                    <mxGeometry width="50" height="50" relative="1" as="geometry">
                        <mxPoint x="10.632911392405063" y="95.78947368421052" as="sourcePoint"/>
                        <mxPoint x="37.21518987341773" y="78.68421052631578" as="targetPoint"/>
                        <Array as="points">
                            <mxPoint x="37.21518987341773" y="123.15789473684208"/>
                        </Array>
                    </mxGeometry>
                </mxCell>
                <mxCell id="103" value="" style="endArrow=classic;html=1;strokeWidth=2;fontSize=23;entryX=0.5;entryY=1;entryDx=0;entryDy=0;" edge="1" parent="86" target="95">
                    <mxGeometry width="50" height="50" relative="1" as="geometry">
                        <mxPoint x="148.8607594936709" y="41.05263157894737" as="sourcePoint"/>
                        <mxPoint x="175.44303797468353" y="23.94736842105263" as="targetPoint"/>
                    </mxGeometry>
                </mxCell>
                <mxCell id="104" value="" style="endArrow=classic;html=1;strokeWidth=2;fontSize=23;entryX=0.5;entryY=1;entryDx=0;entryDy=0;" edge="1" parent="86" target="95">
                    <mxGeometry width="50" height="50" relative="1" as="geometry">
                        <mxPoint x="271.1392405063291" y="41.05263157894737" as="sourcePoint"/>
                        <mxPoint x="297.7215189873418" y="23.94736842105263" as="targetPoint"/>
                    </mxGeometry>
                </mxCell>
                <mxCell id="105" value="" style="endArrow=classic;html=1;strokeWidth=2;fontSize=23;entryX=0;entryY=0.5;entryDx=0;entryDy=0;" edge="1" parent="86" target="95">
                    <mxGeometry width="50" height="50" relative="1" as="geometry">
                        <mxPoint x="37.21518987341773" y="61.57894736842104" as="sourcePoint"/>
                        <mxPoint x="63.79746835443038" y="44.4736842105263" as="targetPoint"/>
                        <Array as="points">
                            <mxPoint x="37.21518987341773" y="6.84210526315789"/>
                        </Array>
                    </mxGeometry>
                </mxCell>
                <mxCell id="106" value="" style="endArrow=classic;html=1;strokeWidth=2;fontSize=23;entryX=1;entryY=0.5;entryDx=0;entryDy=0;" edge="1" parent="86" target="95">
                    <mxGeometry width="50" height="50" relative="1" as="geometry">
                        <mxPoint x="382.7848101265823" y="41.05263157894737" as="sourcePoint"/>
                        <mxPoint x="409.3670886075949" y="23.94736842105263" as="targetPoint"/>
                        <Array as="points">
                            <mxPoint x="382.7848101265823" y="6.84210526315789"/>
                        </Array>
                    </mxGeometry>
                </mxCell>
                <mxCell id="107" value="2 x" style="text;html=1;align=center;verticalAlign=middle;resizable=0;points=[];autosize=1;strokeColor=none;fillColor=none;fontSize=22;" vertex="1" parent="85">
                    <mxGeometry y="50" width="50" height="40" as="geometry"/>
                </mxCell>
                <mxCell id="108" value="" style="endArrow=classic;html=1;strokeColor=#000000;strokeWidth=2;fontSize=17;" edge="1" parent="1">
                    <mxGeometry width="50" height="50" relative="1" as="geometry">
                        <mxPoint x="410" y="400" as="sourcePoint"/>
                        <mxPoint x="410" y="360" as="targetPoint"/>
                    </mxGeometry>
                </mxCell>
                <mxCell id="110" value="" style="endArrow=classic;html=1;strokeColor=#000000;strokeWidth=2;fontSize=17;" edge="1" parent="1">
                    <mxGeometry width="50" height="50" relative="1" as="geometry">
                        <mxPoint x="410" y="229" as="sourcePoint"/>
                        <mxPoint x="410" y="180" as="targetPoint"/>
                    </mxGeometry>
                </mxCell>
                <mxCell id="112" value="&lt;span style=&quot;font-size: 22px;&quot;&gt;全局平均池化层&lt;/span&gt;" style="rounded=0;whiteSpace=wrap;html=1;fillColor=#1ba1e2;strokeColor=#006EAF;container=0;fontColor=#ffffff;" vertex="1" parent="1">
                    <mxGeometry x="331.01" y="150" width="157.97" height="30" as="geometry"/>
                </mxCell>
                <mxCell id="113" value="" style="endArrow=classic;html=1;strokeWidth=2;fontSize=22;strokeColor=#FF9933;" edge="1" parent="1">
                    <mxGeometry width="50" height="50" relative="1" as="geometry">
                        <mxPoint x="409.49000000000007" y="40" as="sourcePoint"/>
                        <mxPoint x="409.49000000000007" y="90" as="targetPoint"/>
                    </mxGeometry>
                </mxCell>
                <mxCell id="114" value="&lt;font style=&quot;font-size: 17px;&quot;&gt;FC&lt;/font&gt;" style="rounded=0;whiteSpace=wrap;html=1;container=0;" vertex="1" parent="1">
                    <mxGeometry x="372.78000000000003" y="90" width="74.43" height="30" as="geometry"/>
                </mxCell>
                <mxCell id="115" value="loss&lt;sub&gt;2&lt;/sub&gt;" style="text;html=1;align=center;verticalAlign=middle;resizable=0;points=[];autosize=1;strokeColor=none;fillColor=none;fontSize=17;" vertex="1" parent="1">
                    <mxGeometry x="400" y="50" width="60" height="40" as="geometry"/>
                </mxCell>
                <mxCell id="117" value="" style="endArrow=classic;html=1;strokeColor=#000000;strokeWidth=2;fontSize=17;" edge="1" parent="1">
                    <mxGeometry width="50" height="50" relative="1" as="geometry">
                        <mxPoint x="410" y="150" as="sourcePoint"/>
                        <mxPoint x="409.49" y="120" as="targetPoint"/>
                    </mxGeometry>
                </mxCell>
                <mxCell id="120" value="&lt;span style=&quot;font-size: 22px;&quot;&gt;全局平均池化层&lt;/span&gt;" style="rounded=0;whiteSpace=wrap;html=1;fillColor=#1ba1e2;strokeColor=#006EAF;container=0;fontColor=#ffffff;" vertex="1" parent="1">
                    <mxGeometry x="630" y="469" width="157.97" height="30" as="geometry"/>
                </mxCell>
                <mxCell id="121" value="" style="endArrow=classic;html=1;strokeWidth=2;fontSize=22;strokeColor=#FF9933;" edge="1" parent="1">
                    <mxGeometry width="50" height="50" relative="1" as="geometry">
                        <mxPoint x="708.48" y="359" as="sourcePoint"/>
                        <mxPoint x="708.48" y="409" as="targetPoint"/>
                    </mxGeometry>
                </mxCell>
                <mxCell id="122" value="&lt;font style=&quot;font-size: 17px;&quot;&gt;FC&lt;/font&gt;" style="rounded=0;whiteSpace=wrap;html=1;container=0;" vertex="1" parent="1">
                    <mxGeometry x="671.77" y="409" width="74.43" height="30" as="geometry"/>
                </mxCell>
                <mxCell id="123" value="loss&lt;sub&gt;1&lt;/sub&gt;" style="text;html=1;align=center;verticalAlign=middle;resizable=0;points=[];autosize=1;strokeColor=none;fillColor=none;fontSize=17;" vertex="1" parent="1">
                    <mxGeometry x="698.99" y="369" width="60" height="40" as="geometry"/>
                </mxCell>
                <mxCell id="124" value="" style="endArrow=classic;html=1;strokeColor=#000000;strokeWidth=2;fontSize=17;" edge="1" parent="1">
                    <mxGeometry width="50" height="50" relative="1" as="geometry">
                        <mxPoint x="708.99" y="469" as="sourcePoint"/>
                        <mxPoint x="708.48" y="439" as="targetPoint"/>
                    </mxGeometry>
                </mxCell>
            </root>
        </mxGraphModel>
    </diagram>
</mxfile>